<?xml version="1.0" encoding="UTF-8" standalone="no"?>
<!-- Created with Inkscape (http://www.inkscape.org/) -->

<svg
   xmlns:dc="http://purl.org/dc/elements/1.1/"
   xmlns:cc="http://creativecommons.org/ns#"
   xmlns:rdf="http://www.w3.org/1999/02/22-rdf-syntax-ns#"
   xmlns:svg="http://www.w3.org/2000/svg"
   xmlns="http://www.w3.org/2000/svg"
   xmlns:sodipodi="http://sodipodi.sourceforge.net/DTD/sodipodi-0.dtd"
   xmlns:inkscape="http://www.inkscape.org/namespaces/inkscape"
   width="500"
   height="500"
   viewBox="0 0 132.29166 132.29167"
   version="1.1"
   id="svg8"
   sodipodi:docname="wheel_v1.svg"
   inkscape:version="0.92.1 r15371"
   inkscape:export-filename="D:\git\PhantasticCasino\client\Assets\Materials\img\wheel_v1.png"
   inkscape:export-xdpi="300"
   inkscape:export-ydpi="300">
  <defs
     id="defs2" />
  <sodipodi:namedview
     id="base"
     pagecolor="#ffffff"
     bordercolor="#666666"
     borderopacity="1.0"
     inkscape:pageopacity="0.0"
     inkscape:pageshadow="2"
     inkscape:zoom="1.4142136"
     inkscape:cx="178.29647"
     inkscape:cy="255.49457"
     inkscape:document-units="mm"
     inkscape:current-layer="layer1"
     showgrid="false"
     units="px"
     inkscape:measure-start="13.9372,293.282"
     inkscape:measure-end="250.007,250.009"
     inkscape:window-width="1920"
     inkscape:window-height="1017"
     inkscape:window-x="1912"
     inkscape:window-y="-8"
     inkscape:window-maximized="1" />
  <metadata
     id="metadata5">
    <rdf:RDF>
      <cc:Work
         rdf:about="">
        <dc:format>image/svg+xml</dc:format>
        <dc:type
           rdf:resource="http://purl.org/dc/dcmitype/StillImage" />
        <dc:title></dc:title>
      </cc:Work>
    </rdf:RDF>
  </metadata>
  <g
     inkscape:label="Ebene 1"
     inkscape:groupmode="layer"
     id="layer1"
     transform="translate(0,-164.70832)">
    <path
       style="fill:#bfeeff;fill-opacity:1;stroke-width:0.99166662"
       d="m 249.82031,249.58984 -0.0137,0.0469 -0.12109,0.0566 -0.0645,-0.0645 z"
       transform="matrix(0.26458333,0,0,0.26458333,0,164.70832)"
       id="path5428" />
    <circle
       style="fill:#17b1e8;fill-opacity:1;stroke-width:0.26108116"
       id="path4485"
       cx="116.84467"
       cy="209.80048"
       r="66.145836"
       transform="rotate(13.126437)" />
    <path
       style="fill:#ffffff;fill-opacity:1;stroke-width:0.27396026"
       d="M 127.98667,245.27505 A 63.5,63.5 0 0 1 51.724942,292.69499 63.5,63.5 0 0 1 4.3050085,216.43327 63.5,63.5 0 0 1 80.566729,169.01333 63.5,63.5 0 0 1 127.98667,245.27505 Z"
       id="path4487"
       inkscape:connector-curvature="0" />
    <path
       style="fill:#f8f8f8;fill-opacity:1;stroke-width:0.26237845"
       d="m 46.492281,170.47211 c -4.478912,1.50241 -2.866412,0.89196 -7.133478,2.80922 l 26.786991,57.57285 z"
       id="path4722"
       inkscape:connector-curvature="0"
       sodipodi:nodetypes="cccc" />
    <path
       sodipodi:nodetypes="cccc"
       inkscape:connector-curvature="0"
       id="path4746"
       d="m 46.492281,170.47211 c -4.478912,1.50241 -2.866412,0.89196 -7.133478,2.80922 l 26.786991,57.57285 z"
       style="fill:#f8f8f8;fill-opacity:1;stroke-width:0.26237845" />
    <path
       style="fill:#f8f8f8;fill-opacity:1;stroke-width:0.26237845"
       d="m 61.511774,167.52345 c -4.708302,0.38704 -2.996574,0.18016 -7.59845,1.02068 l 12.23247,62.31005 z"
       id="path4774"
       inkscape:connector-curvature="0"
       sodipodi:nodetypes="cccc" />
    <path
       style="fill:#f8f8f8;fill-opacity:1;stroke-width:0.26237845"
       d="m 76.826141,168.25877 c -4.663825,-0.75275 -2.952408,-0.54332 -7.621606,-0.83029 l -3.058741,63.4257 z"
       id="path4796"
       inkscape:connector-curvature="0"
       sodipodi:nodetypes="cccc" />
    <path
       sodipodi:nodetypes="cccc"
       inkscape:connector-curvature="0"
       id="path4798"
       d="M 91.494035,172.63286 C 87.145816,170.786 88.7574,171.39886 84.29252,170.00295 L 66.145794,230.85418 Z"
       style="fill:#f8f8f8;fill-opacity:1;stroke-width:0.26237845" />
    <path
       sodipodi:nodetypes="cccc"
       inkscape:connector-curvature="0"
       id="path4848"
       d="m 76.827222,168.25458 c -4.664255,-0.75008 -2.952718,-0.54163 -7.62208,-0.82594 l -3.022607,63.42743 z"
       style="fill:#f8f8f8;fill-opacity:1;stroke-width:0.26237845" />
    <path
       style="fill:#f8f8f8;fill-opacity:1;stroke-width:0.26237845"
       d="m 91.497604,172.62032 c -4.34927,-1.84439 -2.737337,-1.23243 -7.203012,-2.6258 l -18.112057,60.86155 z"
       id="path4850"
       inkscape:connector-curvature="0"
       sodipodi:nodetypes="cccc" />
    <path
       style="fill:#f8f8f8;fill-opacity:1;stroke-width:0.26237845"
       d="m 104.68854,180.38922 c -3.78,-2.83363 -2.36187,-1.85296 -6.363055,-4.27665 l -32.179691,54.74161 z"
       id="path4854"
       inkscape:connector-curvature="0"
       sodipodi:nodetypes="cccc" />
    <path
       sodipodi:nodetypes="cccc"
       inkscape:connector-curvature="0"
       id="path4856"
       d="m 115.64437,191.07798 c -2.99214,-3.65581 -1.84987,-2.36429 -5.15486,-5.67499 l -44.343716,45.45119 z"
       style="fill:#f8f8f8;fill-opacity:1;stroke-width:0.26237845" />
    <path
       sodipodi:nodetypes="cccc"
       inkscape:connector-curvature="0"
       id="path4900"
       d="m 129.47172,226.15498 c -0.39187,-4.70791 -0.18324,-2.9964 -1.0285,-7.5974 l -62.297426,12.2966 z"
       style="fill:#bfeeff;fill-opacity:1;stroke-width:0.26237845" />
    <path
       style="fill:#f8f8f8;fill-opacity:1;stroke-width:0.26237845"
       d="m 26.360272,181.36309 c -3.655252,2.99284 -2.363947,1.85033 -5.674026,5.15595 l 45.459548,44.33514 z"
       id="path5130"
       inkscape:connector-curvature="0"
       sodipodi:nodetypes="cccc" />
    <path
       sodipodi:nodetypes="cccc"
       inkscape:connector-curvature="0"
       id="path5132"
       d="m 15.673526,192.321 c -2.832918,3.78056 -1.852515,2.36224 -4.275443,6.36389 l 54.747711,32.16929 z"
       style="fill:#f8f8f8;fill-opacity:1;stroke-width:0.26237845" />
    <path
       style="fill:#f8f8f8;fill-opacity:1;stroke-width:0.26237845"
       d="m 7.9196417,205.51703 c -1.846039,4.34859 -1.2334809,2.73688 -2.628535,7.20203 l 60.8546873,18.13512 z"
       id="path5134"
       inkscape:connector-curvature="0"
       sodipodi:nodetypes="cccc" />
    <path
       sodipodi:nodetypes="cccc"
       inkscape:connector-curvature="0"
       id="path5136"
       d="m 3.5741629,220.21749 c -0.7500183,4.66428 -0.5415889,2.95273 -0.8258294,7.6221 l 63.4274815,3.02163 z"
       style="fill:#f8f8f8;fill-opacity:1;stroke-width:0.26237845" />
    <path
       style="fill:#f8f8f8;fill-opacity:1;stroke-width:0.26237845"
       d="m 126.5682,211.32504 c -1.49318,-4.48199 -0.88605,-2.86824 -2.79452,-7.13924 l -57.627886,26.66838 z"
       id="path5138"
       inkscape:connector-curvature="0"
       sodipodi:nodetypes="cccc" />
    <path
       style="fill:#84bf41;fill-opacity:1;stroke-width:0.26237845"
       d="m 65.352533,167.30144 c -0.74274,0.012 -1.47936,0.0817 -3.81424,0.22066 l 4.60747,63.33205 v 0 L 2.7207034,227.77114 c -0.18702,4.72048 -0.18456,2.99636 0.0915,7.6662 l 63.3335996,-4.58319 -3.06647,63.31035 c 4.72055,0.1852 2.99645,0.18328 7.66619,-0.0946 l -4.59972,-63.21578 v 0 l 63.417317,2.96675 c 0.18702,-4.72048 0.18453,-2.99584 -0.0915,-7.66568 l -63.325847,4.69893 3.05873,-63.4261 c -2.36027,-0.0926 -3.10922,-0.1386 -3.85196,-0.12661 z"
       id="path5140"
       inkscape:connector-curvature="0"
       sodipodi:nodetypes="sccccccccccccccs" />
    <path
       style="fill:#f8f51c;fill-opacity:1;stroke-width:0.26237845"
       d="m 32.61486,176.92876 c -3.9893,2.5305 -2.56955,1.55228 -6.25389,4.43487 L 66.14614,230.85415 12.213,264.26917 c 2.5305,3.98929 1.55176,2.56955 4.43435,6.25388 l 49.49875,-39.66887 4e-5,-3e-5 C 54.98386,212.90153 43.7889,194.89896 32.61486,176.92876 Z m 33.53128,53.92539 h 10e-4 l 33.52198,53.80912 c 3.9893,-2.5305 2.56955,-1.55228 6.25388,-4.43487 l -39.77588,-49.37425 53.92435,-33.53077 c -2.5305,-3.98929 -1.55228,-2.57006 -4.43487,-6.2544 -16.43061,13.20779 -33.28418,26.7581 -49.49052,39.78517 z"
       id="path5144"
       inkscape:connector-curvature="0"
       sodipodi:nodetypes="cccccccccccccccc" />
    <path
       sodipodi:nodetypes="cccc"
       inkscape:connector-curvature="0"
       id="path5148"
       d="m 46.492281,170.47211 c -4.478912,1.50241 -2.866412,0.89196 -7.133478,2.80922 l 26.786991,57.57285 z"
       style="fill:#f8f8f8;fill-opacity:1;stroke-width:0.26237845" />
    <path
       style="fill:#f8f8f8;fill-opacity:1;stroke-width:0.99166662"
       d="M 261.5625,10.28125 249.99985,250.00007 232.48633,10.640435 c -17.79516,1.462828 -11.32583,0.680653 -28.71875,3.857422 13.99008,78.345775 33.17368,157.743113 46.23227,235.502213 C 225.60026,175.22591 200.36154,97.462849 175.71883,21.785266 158.79066,27.463666 164.88539,25.156117 148.75789,32.402454 181.51683,105.0935 217.89533,177.3747 249.99985,250.00007 L 99.628906,62.947266 C 85.813781,74.258787 90.694129,69.939912 78.183594,82.433594 L 249.99985,250.0001 59.238281,104.36328 c -10.707091,14.28873 -7.00068,8.92839 -16.158203,24.05274 L 249.99985,250.00007 29.931641,154.23825 c -6.977156,16.43562 -4.660949,10.34259 -9.933594,27.21875 L 249.99985,250.0001 13.507812,209.79877 c -2.834714,17.62877 -2.046798,11.15863 -3.121093,28.80664 L 249.99985,250.0001 10.628906,267.32227 c 1.481086,17.79367 0.692059,11.3252 3.886719,28.71484 L 249.99985,250.0001 v 0 L 21.601562,323.37109 c 5.643522,16.93981 3.34939,10.84202 10.5625,26.98438 L 249.99985,250.00007 62.888672,399.89651 c 11.308891,13.81724 6.991121,8.93634 19.482422,21.44922 L 249.99985,250.00007 104.29684,440.29501 c 14.28662,10.70978 8.92623,7.00366 24.04882,16.16406 L 249.99985,250.0001 154.15234,469.6582 c 16.43819,6.97093 10.34647,4.65759 27.22461,9.92383 l 68.6229,-229.58196 v 0 l -40.4002,236.15813 c 17.62868,2.83495 11.15866,2.04658 28.80664,3.1211 l 11.59356,-239.27923 17.48457,238.92197 c 17.79516,-1.4628 11.30239,-0.5264 28.6953,-3.70313 C 281.59761,406.72112 249.99985,250.0001 249.99985,250.0001 l 74.25211,227.77713 c 16.92819,-5.6784 10.83341,-3.3728 26.96094,-10.61914 L 249.99985,250.0001 v 0 l 150.34,186.61309 c 13.81512,-11.31152 8.93478,-6.99264 21.44532,-19.48633 L 249.99985,250.0001 v 0 l 190.73062,145.19698 c 10.70714,-14.2887 7.00262,-8.92644 16.16015,-24.05079 L 249.99985,250.0001 v 0 l 220.03726,95.32395 c 6.97716,-16.43562 4.66292,-10.34455 9.93555,-27.2207 L 249.99985,250.0001 v 0 l 236.46109,39.76148 c 2.83472,-17.62881 2.04684,-11.15867 3.12109,-28.80664 L 249.99985,250.00007 489.3418,232.24023 c -1.48109,-17.79367 -0.69204,-11.32523 -3.88672,-28.71484 L 249.99985,250.0001 c 76.12302,-24.60179 152.245,-49.20677 228.36734,-73.81065 -5.64352,-16.9398 -3.34743,-10.84006 -10.56055,-26.98242 L 249.99985,250.00007 437.08203,99.664062 C 425.77316,85.846828 430.08896,90.729679 417.59766,78.216797 L 249.99985,250.0001 395.67383,59.265625 C 381.38721,48.555842 386.74564,52.263919 371.62305,43.103516 L 249.99985,250.0001 345.81836,29.904297 C 329.38017,22.933374 335.47189,25.244796 318.59375,19.978516 L 249.99985,250.00007 290.37115,13.402284 C 272.74241,10.567396 279.21048,11.355807 261.5625,10.28125 Z"
       transform="matrix(0.26458333,0,0,0.26458333,0,164.70832)"
       id="path5150"
       inkscape:connector-curvature="0"
       sodipodi:nodetypes="ccccccccccccccccccccccccccccccccccccccccccccccccccccccccccccccccccccccccccccccc" />
    <path
       style="fill:#9ad2fd;fill-opacity:1;stroke-width:0.26237845"
       d="m 91.49348,172.63342 c -9.35587,20.05843 -17.34307,41.00891 -25.3478,58.22073 v 0 l -4e-5,2e-5 26.7798,57.45695 c 4.26518,-2.03127 2.73837,-1.23077 6.74325,-3.64835 l -33.52198,-53.8102 v 0 l 54.73929,32.05492 c 2.35665,-4.0944 1.55431,-2.56817 3.47731,-6.83265 l -58.2166,-25.22224 62.30937,-12.23181 c -0.95171,-4.62733 -0.54003,-2.9532 -1.92908,-7.42022 l -60.38029,19.652 c 10.76074,-18.21805 21.46095,-36.49045 32.17891,-54.7403 -4.09395,-2.35741 -2.56803,-1.55503 -6.83214,-3.47885 z m -25.3478,58.22073 z M 39.35765,173.28092 c -4.26519,2.03128 -2.73786,1.23079 -6.74274,3.64836 11.21833,17.94993 22.28789,35.99411 33.5318,53.92746 L 11.3976,198.68454 c -2.35665,4.0944 -1.5543,2.56818 -3.47731,6.83266 L 66.1457,230.8539 3.827,242.97124 c 0.95171,4.62733 0.54003,2.9532 1.92908,7.42022 20.15588,-5.7533 40.24112,-14.27806 60.38962,-19.53756 l -32.18772,54.62638 c 4.09395,2.35743 2.56751,1.55453 6.83162,3.47833 L 66.14568,230.84847 C 57.2172,211.66939 48.28544,192.46857 39.35765,173.28092 Z m 26.78803,57.57323 c -44.09723,44.09723 -22.04861,22.04862 0,0 z"
       id="path5152"
       inkscape:connector-curvature="0"
       sodipodi:nodetypes="ccccccccccccccccccccccccccccccccc" />
    <path
       style="fill:#bfeeff;fill-opacity:1;stroke-width:0.26237845"
       d="m 76.82721,168.25436 c -3.63274,21.3961 -7.36988,43.41012 -10.681,62.59669 -9.7e-4,-0.003 -0.002,-0.006 -0.003,-0.009 5.8e-4,0.003 0.001,0.006 0.002,0.009 l 10e-4,0.001 c -6e-5,3.5e-4 -4.6e-4,6.8e-4 -5.2e-4,0.001 -3e-5,1.6e-4 3e-5,3.5e-4 0,5.2e-4 L 5.28998,212.71927 c -1.30847,4.53936 -0.89427,2.86546 -1.74098,7.46621 l 62.59669,10.6686 c 4.2805,21.66151 8.58534,43.66192 12.2251,62.19414 4.62732,-0.95167 2.95318,-0.53954 7.42021,-1.92857 L 66.14724,230.85408 h -5.1e-4 v -5.1e-4 h 5.1e-4 v 5.1e-4 l 0.002,5.2e-4 h 5.2e-4 l 0.01,0.002 -0.0114,-0.003 v -5.2e-4 h -5.2e-4 l 18.1467,-60.85881 c -4.53986,-1.30677 -2.86581,-0.89382 -7.46673,-1.73943 z M 66.14776,230.8526 h 5.2e-4 l 5.1e-4,-5.1e-4 c -8e-5,8e-5 -4.3e-4,-9e-5 -5.1e-4,0 -9e-5,8e-5 -4.4e-4,-9e-5 -5.2e-4,0 z m 10e-4,-5.1e-4 0.004,-0.002 -0.004,0.002 c -8e-5,8e-5 9e-5,4.3e-4 0,5.2e-4 z m 0.004,-0.002 57.56651,-26.7839 c -2.0313,-4.26517 -1.23128,-2.73787 -3.64887,-6.74274 z m 0.007,0.006 60.83401,18.01647 c 1.30847,-4.53937 0.89478,-2.86546 1.74149,-7.46621 z m -0.01,-0.002 45.4489,44.21849 c 3.2679,-3.41156 2.12353,-2.12175 5.01107,-5.80223 z m -0.004,-5.2e-4 -18.15651,60.7441 c 4.53985,1.30676 2.86632,0.89382 7.46724,1.73943 3.99148,-20.65291 6.44645,-42.02062 10.68927,-62.48353 z m 0,0 -44.35181,45.33574 c 3.41094,3.26853 2.12126,2.12438 5.80119,5.01261 z m 0,0 -57.58098,26.67176 c 2.0313,4.26518 1.23077,2.73839 3.64836,6.74326 z m 0,0 z m 0,-0.001 c -1.4e-4,-7e-4 -3.8e-4,-10e-4 -5.1e-4,-0.002 L 20.68549,186.51839 c -3.2679,3.41157 -2.12404,2.12176 -5.01158,5.80223 16.82657,12.84058 33.64358,25.69368 50.47185,38.53202 z m -0.003,-0.0108 c -4.21861,-21.35376 -8.50032,-43.28849 -12.23078,-62.29853 -4.62733,0.95168 -2.95267,0.54005 -7.4197,1.92909 6.55931,20.1184 13.08706,40.25897 19.65048,60.36944 z m 38.54493,-50.45274 c -12.92641,16.68363 -25.56053,33.85181 -38.53718,50.45946 14.77942,-15.14901 29.55887,-30.29792 44.33838,-45.44684 -3.41095,-3.26853 -2.12127,-2.12439 -5.8012,-5.01262 z"
       id="path5442"
       inkscape:connector-curvature="0"
       sodipodi:nodetypes="cccccsccccccccccccccccccccccccccccccccccccccccccccccccccccccccccccccccccccccc" />
    <circle
       style="fill:#f8f8f8;fill-opacity:1;stroke-width:0.28455371"
       id="path5447"
       cx="66.145836"
       cy="230.85416"
       r="52.916668" />
  </g>
</svg>
